<?xml version="1.0" encoding="UTF-8" standalone="no"?>
<!-- Created with Inkscape (http://www.inkscape.org/) -->

<svg
   xmlns:dc="http://purl.org/dc/elements/1.1/"
   xmlns:cc="http://creativecommons.org/ns#"
   xmlns:rdf="http://www.w3.org/1999/02/22-rdf-syntax-ns#"
   xmlns:svg="http://www.w3.org/2000/svg"
   xmlns="http://www.w3.org/2000/svg"
   xmlns:sodipodi="http://sodipodi.sourceforge.net/DTD/sodipodi-0.dtd"
   xmlns:inkscape="http://www.inkscape.org/namespaces/inkscape"
   width="316.74405mm"
   height="94.494049mm"
   viewBox="0 0 316.74405 94.494049"
   version="1.1"
   id="svg8"
   inkscape:version="0.92.3 (2405546, 2018-03-11)"
   sodipodi:docname="download.svg"
   inkscape:export-filename="D:\cjden\Documents\casparcg-template-marketplace\img\download.png"
   inkscape:export-xdpi="16.038187"
   inkscape:export-ydpi="16.038187">
  <defs
     id="defs2" />
  <sodipodi:namedview
     id="base"
     pagecolor="#ffffff"
     bordercolor="#666666"
     borderopacity="1.0"
     inkscape:pageopacity="0.0"
     inkscape:pageshadow="2"
     inkscape:zoom="0.35"
     inkscape:cx="1638.5714"
     inkscape:cy="-25.714284"
     inkscape:document-units="mm"
     inkscape:current-layer="g835"
     showgrid="false"
     fit-margin-top="0"
     fit-margin-left="0"
     fit-margin-right="0"
     fit-margin-bottom="0"
     inkscape:window-width="1920"
     inkscape:window-height="1017"
     inkscape:window-x="-8"
     inkscape:window-y="-8"
     inkscape:window-maximized="1" />
  <metadata
     id="metadata5">
    <rdf:RDF>
      <cc:Work
         rdf:about="">
        <dc:format>image/svg+xml</dc:format>
        <dc:type
           rdf:resource="http://purl.org/dc/dcmitype/StillImage" />
        <dc:title></dc:title>
      </cc:Work>
    </rdf:RDF>
  </metadata>
  <g
     inkscape:label="Layer 1"
     inkscape:groupmode="layer"
     id="layer1"
     transform="translate(450.54761,-47.535713)">
    <rect
       style="opacity:1;fill:#323232;fill-opacity:1;stroke:none;stroke-width:5;stroke-linecap:round;stroke-linejoin:miter;stroke-miterlimit:4;stroke-dasharray:none;stroke-opacity:1;paint-order:normal"
       id="rect830"
       width="316.74405"
       height="94.494049"
       x="-450.54761"
       y="47.535713"
       ry="0"
       rx="0" />
    <g
       id="g835"
       transform="translate(10.614654,2.8978127)">
      <text
         id="text817"
         y="104.23215"
         x="-375.70834"
         style="font-style:normal;font-variant:normal;font-weight:normal;font-stretch:normal;font-size:10.58333302px;line-height:1.25;font-family:Raleway;-inkscape-font-specification:Raleway;letter-spacing:0px;word-spacing:0px;fill:#000000;fill-opacity:1;stroke:none;stroke-width:0.26458332"
         xml:space="preserve"><tspan
           style="font-style:normal;font-variant:normal;font-weight:bold;font-stretch:normal;font-size:35.27777863px;font-family:Quicksand;-inkscape-font-specification:'Quicksand Bold';fill:#ffffff;fill-opacity:1;stroke-width:0.26458332"
           y="104.23215"
           x="-375.70834"
           id="tspan815"
           sodipodi:role="line">DOWNLOAD</tspan></text>
      <path
         style="fill:#00ff04;fill-opacity:1;stroke-width:0.12284226"
         inkscape:connector-curvature="0"
         d="M -405.79525,77.143847 V 60.4373 h -24.56845 c -1.6338,0 -2.94822,1.314412 -2.94822,2.948215 v 56.998815 c 0,1.6338 1.31442,2.94822 2.94822,2.94822 h 41.275 c 1.6338,0 2.94822,-1.31442 2.94822,-2.94822 V 80.092062 h -16.70655 c -1.62152,0 -2.94822,-1.326697 -2.94822,-2.948215 z m 9.3913,25.963943 -11.84446,11.75601 c -0.8169,0.81199 -2.13622,0.81199 -2.95312,0 l -11.84446,-11.75601 c -1.24685,-1.23702 -0.37221,-3.360967 1.38198,-3.360967 h 8.00686 v -9.827378 c 0,-1.085927 0.87955,-1.965479 1.96548,-1.965479 h 3.93095 c 1.08592,0 1.96547,0.879552 1.96547,1.965479 v 9.827378 h 8.00686 c 1.75419,0 2.62883,2.123947 1.38444,3.360967 z m 9.40357,-29.772051 -12.02626,-12.038544 c -0.55279,-0.552788 -1.30212,-0.859895 -2.08831,-0.859895 h -0.74934 v 15.723808 h 15.72381 v -0.749339 c 0,-0.773904 -0.30711,-1.523242 -0.8599,-2.07603 z"
         id="path819" />
    </g>
  </g>
</svg>
